<svg width="28" height="28" viewBox="0 0 28 28" fill="none" xmlns="http://www.w3.org/2000/svg">
<path fill-rule="evenodd" clip-rule="evenodd" d="M0 11C0 15.7615 2.91752 19.8163 7 21.3473V19.1706C4.0703 17.7535 2 14.6616 2 11C2 5.96046 5.92179 2 10.6083 2C14.5839 2 18.0091 4.85004 18.9569 8.79115L18.9599 8.78992C19.0937 9.33674 19.1791 9.90367 19.2108 10.4855C19.8339 10.1732 20.5272 10 21.2493 10C23.8053 10 26 12.1696 26 15C26 17.8105 23.8359 19.9695 21.3029 19.9996V20H21V21.9953C21.0827 21.9984 21.1658 22 21.2493 22C24.9776 22 28 18.866 28 15C28 11.134 24.9776 8.00001 21.2493 8.00001C21.1054 8.00001 20.9626 8.00467 20.821 8.01387C19.5661 3.38976 15.469 0 10.6083 0C4.74949 0 0 4.92487 0 11ZM15.168 14.4453L11.168 20.4453L10.1315 22H12H15.0442L11.856 26.4145L13.4773 27.5855L17.8107 21.5855L18.9558 20H17H13.8685L16.8321 15.5547L15.168 14.4453ZM18.3609 24.9244C18.1533 25.4108 18.0009 25.9308 18.001 26.4091C18.0013 27.2877 18.6731 28 19.5015 28C20.33 28 21.0013 27.2877 21.001 26.4091C21.0009 25.9619 20.8327 25.4321 20.609 24.9252C20.1643 23.9175 19.5 23 19.5 23C19.5 23 18.8044 23.8856 18.3609 24.9244ZM7.00105 26.4091C7.0009 25.9308 7.15328 25.4108 7.36092 24.9244C7.80441 23.8856 8.5 23 8.5 23C8.5 23 9.16427 23.9175 9.60902 24.9252C9.83274 25.4321 10.0009 25.9619 10.001 26.4091C10.0013 27.2877 9.32996 28 8.50153 28C7.67311 28 7.00132 27.2877 7.00105 26.4091Z" fill="white"/>
</svg>
